<svg width="33" height="32" viewBox="0 0 33 32" fill="none" xmlns="http://www.w3.org/2000/svg">
<path d="M0.535227 15.9993C0.535227 24.534 7.53734 31.4634 16.1881 31.4634C24.839 31.4634 31.8411 24.534 31.8411 15.9993C31.8411 7.46463 24.839 0.535215 16.1881 0.535215C7.53734 0.535215 0.535227 7.46463 0.535227 15.9993Z" stroke="#DCDCDC" stroke-width="1.07043"/>
<path d="M9.07081 16.6119C8.8618 16.4028 8.8618 16.064 9.07081 15.8549L12.4769 12.4489C12.6859 12.2398 13.0248 12.2398 13.2338 12.4489C13.4428 12.6579 13.4428 12.9968 13.2338 13.2058L10.2062 16.2334L13.2338 19.261C13.4428 19.47 13.4428 19.8089 13.2338 20.0179C13.0248 20.227 12.6859 20.227 12.4769 20.0179L9.07081 16.6119ZM22.3807 16.7686H9.44927V15.6982H22.3807V16.7686Z" fill="#151515"/>
</svg>
