<svg width="29" height="29" viewBox="0 0 29 29" fill="none" xmlns="http://www.w3.org/2000/svg">
<path d="M28.0741 14.2577C28.0741 21.7537 21.924 27.841 14.3242 27.841C6.72434 27.841 0.574217 21.7537 0.574217 14.2577C0.574217 6.76174 6.72434 0.674375 14.3242 0.674375C21.924 0.674375 28.0741 6.76174 28.0741 14.2577Z" stroke="white" stroke-width="1.07043"/>
<path d="M20.4083 14.6363C20.6173 14.4273 20.6173 14.0884 20.4083 13.8794L17.0022 10.4733C16.7932 10.2643 16.4543 10.2643 16.2453 10.4733C16.0363 10.6823 16.0363 11.0212 16.2453 11.2302L19.273 14.2578L16.2453 17.2854C16.0363 17.4945 16.0363 17.8333 16.2453 18.0424C16.4543 18.2514 16.7932 18.2514 17.0022 18.0424L20.4083 14.6363ZM8.61859 14.793H20.0299V13.7226H8.61859V14.793Z" fill="white"/>
</svg>
