<svg width="788" height="390" viewBox="0 0 788 390" fill="none" xmlns="http://www.w3.org/2000/svg">
<mask id="mask0_1_368" style="mask-type:alpha" maskUnits="userSpaceOnUse" x="0" y="0" width="795" height="587">
<path d="M794.288 0.954834H0.617065V586.14H794.288V0.954834Z" fill="url(#paint0_linear_1_368)"/>
</mask>
<g mask="url(#mask0_1_368)">
<path d="M118.266 426.939C286.309 330.948 453.07 234.775 619.647 138.784C680.121 103.828 740.778 68.873 792.089 39.3511L793.188 38.8078V3.30908C547.629 144.58 302.069 285.669 56.5094 426.939L194.316 505.544V531.081C154.733 508.441 115.15 485.983 75.5677 463.525L35.4352 440.704L34.1525 439.98L3.36589 457.548C77.4003 499.748 151.251 541.948 225.286 584.148V391.622L194.316 409.371V470.407L118.266 426.939Z" stroke="#D0D0D0" stroke-width="1.4173" stroke-miterlimit="22.9256"/>
<path d="M657.031 13.4521C484.773 111.798 315.08 209.601 145.388 307.584C88.9456 340.185 32.3203 372.786 -12.5768 398.686L-13.6763 399.229V434.547L-10.561 432.735C30.8543 408.828 72.2695 385.102 113.502 361.195C313.981 245.643 514.46 130.091 715.489 15.2632L718.604 13.4521L580.798 -65.1522V-90.6896C620.38 -68.0501 659.963 -45.5917 699.546 -23.1333L739.678 -0.312729L740.961 0.411728L771.748 -17.1565L550.011 -143.575V48.7697L580.981 31.0203V-29.8346L657.031 13.4521Z" stroke="#D0D0D0" stroke-width="1.4173" stroke-miterlimit="22.9256"/>
</g>
<mask id="mask1_1_368" style="mask-type:alpha" maskUnits="userSpaceOnUse" x="248" y="69" width="547" height="354">
<path d="M794.288 69.4167H248.193V422.412H794.288V69.4167Z" fill="url(#paint1_linear_1_368)"/>
</mask>
<g mask="url(#mask1_1_368)">
<path d="M252.774 418.428L793.188 107.089V71.5906C611.951 176.094 430.713 280.417 249.475 384.921V420.239L252.774 418.428Z" stroke="#D0D0D0" stroke-width="1.4173" stroke-miterlimit="22.9256"/>
</g>
<mask id="mask2_1_368" style="mask-type:alpha" maskUnits="userSpaceOnUse" x="436" y="137" width="359" height="335">
<path d="M794.288 137.154H436.944V471.494H794.288V137.154Z" fill="url(#paint2_linear_1_368)"/>
</mask>
<g mask="url(#mask2_1_368)">
<path d="M671.875 245.281C712.007 222.279 751.956 199.277 792.089 176.276L793.188 175.732V139.69C693.132 197.285 592.892 254.88 492.836 312.475L630.642 391.079V416.616C594.725 396.15 553.676 372.786 512.627 349.422L471.762 326.058L470.479 325.334L439.692 342.902C513.727 385.102 587.578 427.302 661.612 469.502V276.976L630.642 294.725V355.761L554.592 312.475C593.625 290.016 632.658 267.558 671.875 245.281Z" stroke="#D0D0D0" stroke-width="1.4173" stroke-miterlimit="22.9256"/>
</g>
<defs>
<linearGradient id="paint0_linear_1_368" x1="687.238" y1="53.4815" x2="96.229" y2="554.883" gradientUnits="userSpaceOnUse">
<stop stop-color="white"/>
<stop offset="1"/>
</linearGradient>
<linearGradient id="paint1_linear_1_368" x1="715.269" y1="86.0622" x2="121.757" y2="586.961" gradientUnits="userSpaceOnUse">
<stop stop-color="white"/>
<stop offset="1"/>
</linearGradient>
<linearGradient id="paint2_linear_1_368" x1="783.072" y1="165.626" x2="188.599" y2="670.092" gradientUnits="userSpaceOnUse">
<stop stop-color="white"/>
<stop offset="1"/>
</linearGradient>
</defs>
</svg>
